<?xml version="1.0" encoding="UTF-8"?>
<svg id="Calque_1" data-name="Calque 1" xmlns="http://www.w3.org/2000/svg" viewBox="0 0 37 36.27">
  <defs>
    <style>
      .cls-1 {
        fill: #050504;
      }
    </style>
  </defs>
  <path class="cls-1" d="m10.14,5.21l-2.89,5.21.28.55c1.22,2.43,4.1,4.44,7.63,5.33.64.16,1.56.34,1.76.34.11,0,.15.02.12.07s.02.05.16.03c.12-.02.21-.01.21.02s.09.05.21.04l.21-.02,2.95-5.3c1.63-2.91,2.95-5.31,2.96-5.34,0-.02-.1-.04-.22-.04-.4,0-1.74-.22-2.53-.42-2.46-.6-4.66-1.85-6.32-3.59-.56-.59-1.11-1.3-1.37-1.77-.1-.18-.19-.32-.22-.32s-1.34,2.35-2.93,5.21Z"/>
  <path class="cls-1" d="m22.83,11.65c-1.91,3.44-2.91,5.3-2.87,5.32.03.02.24.07.46.11.99.17,2.56.63,3.67,1.07,2.62,1.04,5,2.79,6.53,4.81.15.2.3.36.33.36.04,0,2.92-5.17,5.5-9.89l.55-1.01-.14-.22c-.25-.38-.96-1.19-1.41-1.61-1.9-1.79-4.14-3.02-6.75-3.71-.74-.19-1.96-.42-2.52-.47l-.42-.03-2.93,5.28Z"/>
  <path class="cls-1" d="m5.74,12.99c-.11.19-1.44,2.6-2.97,5.34l-2.77,4.99.21.38c.26.47.77,1.16,1.26,1.69,1.41,1.53,3.63,2.81,6.05,3.5.83.24,2.22.53,2.81.59l.35.03.85-1.53c.49-.88.88-1.51.91-1.49.03.02.04,0,.02-.03-.05-.08.18-.53.24-.48.03.02.04,0,.02-.06-.03-.07-.02-.08.04-.05.05.03.06.02.03-.02-.02-.04.43-.91,1.04-2,1.09-1.95,2.92-5.27,2.92-5.3,0-.01-.17-.03-.37-.06-.81-.08-2.28-.42-3.31-.76-1.86-.62-3.49-1.49-4.84-2.61-.72-.59-1.67-1.63-2.06-2.24-.09-.14-.18-.26-.2-.26s-.13.16-.23.34Z"/>
  <path class="cls-1" d="m15.77,24.36c-1.65,2.96-3,5.42-3.01,5.45-.01.04.19.1.58.17,3.47.57,6.62,2.1,8.84,4.3.61.6,1.35,1.5,1.53,1.84.04.08.1.16.12.16.03,0,.18-.24.34-.54.17-.29,1.49-2.71,2.95-5.36,1.46-2.66,2.67-4.86,2.68-4.91.04-.12-.49-.93-1.04-1.59-1.75-2.09-4.51-3.68-7.76-4.48-.67-.17-1.99-.42-2.17-.42-.03,0-1.4,2.42-3.05,5.39Z"/>
</svg>