<?xml version="1.0" standalone="no"?>
<!DOCTYPE svg PUBLIC "-//W3C//DTD SVG 20010904//EN"
 "http://www.w3.org/TR/2001/REC-SVG-20010904/DTD/svg10.dtd">
<svg version="1.0" xmlns="http://www.w3.org/2000/svg"
 width="1280.000000pt" height="906.000000pt" viewBox="0 0 1280.000000 906.000000"
 preserveAspectRatio="xMidYMid meet">
<metadata>
Created by potrace 1.15, written by Peter Selinger 2001-2017
</metadata>
<g transform="translate(0.000000,906.000000) scale(0.100000,-0.100000)"
fill="#000000" stroke="none">
<path d="M5970 8111 l-521 -939 50 -100 c220 -438 740 -801 1376 -961 116 -29
282 -61 317 -61 19 0 27 -4 22 -12 -5 -8 3 -9 29 -5 22 3 37 2 37 -4 0 -6 17
-9 38 -7 l37 3 532 955 c293 525 532 958 533 963 0 4 -18 7 -40 7 -72 0 -314
40 -457 75 -443 108 -840 334 -1139 647 -101 106 -200 234 -247 320 -18 32
-35 58 -39 58 -4 0 -241 -423 -528 -939z"/>
<path d="M8257 6949 c-345 -621 -524 -955 -517 -959 6 -4 44 -13 83 -19 179
-31 462 -114 662 -193 472 -187 901 -503 1177 -868 27 -36 54 -65 59 -65 7 0
526 932 991 1783 l100 183 -26 39 c-45 69 -173 215 -254 291 -342 322 -747
545 -1217 669 -133 35 -353 76 -455 85 l-75 6 -528 -952z"/>
<path d="M5176 6708 c-19 -35 -260 -468 -535 -963 l-500 -900 37 -68 c46 -85
138 -209 227 -305 255 -275 655 -507 1090 -631 150 -43 400 -96 506 -107 l64
-6 154 276 c88 158 158 273 164 269 6 -3 7 -1 3 5 -9 15 32 95 44 87 6 -4 7 1
3 11 -5 13 -3 15 7 9 9 -5 11 -4 6 3 -4 7 78 164 187 360 197 352 527 950 527
956 0 2 -30 6 -66 10 -146 15 -411 76 -596 137 -335 111 -629 269 -873 470
-130 107 -301 293 -371 403 -16 25 -32 46 -36 46 -4 0 -23 -28 -42 -62z"/>
<path d="M6985 4658 c-297 -534 -541 -977 -543 -983 -2 -8 34 -18 105 -30 626
-102 1193 -378 1593 -775 110 -109 244 -270 276 -332 8 -15 18 -28 22 -28 5 0
32 44 61 98 30 53 269 489 532 967 263 479 481 877 484 886 8 21 -89 167 -188
286 -316 376 -814 663 -1400 807 -120 30 -358 76 -392 76 -6 0 -253 -437 -550
-972z"/>
</g>
</svg>
